<svg width="91" height="90" viewBox="0 0 91 90" fill="none" xmlns="http://www.w3.org/2000/svg">
<path d="M33.1822 47.8474C33.6025 47.7883 34.3446 47.5607 34.8305 47.3544C35.6364 47.0142 36.0232 46.7099 38.8803 44.1594L42.0415 41.3351L43.5682 40.9515C45.3771 40.4901 51.822 38.9156 58.3362 37.3448C60.9067 36.7263 63.0915 36.1686 63.1869 36.1157C63.4156 35.9538 63.7778 34.5705 63.8269 33.6344C63.9353 31.5656 63.2275 29.8133 61.9195 28.8988C61.5502 28.6476 61.5399 28.6239 61.5793 27.8727C61.6295 26.9134 61.4316 25.8253 61.0792 25.0303C60.5619 23.8443 59.263 22.7564 58.0714 22.497L57.6127 22.4034L57.5797 21.7063C57.5069 19.7787 56.1598 18.2827 53.9109 17.6317L53.1231 17.405L53.0305 16.7396C52.7016 14.6131 50.6635 13.0345 48.0868 12.8879C47.3356 12.8485 47.3131 12.8357 47.102 12.4422C46.5202 11.3803 45.312 10.5521 43.8922 10.2227C43.0102 10.0258 41.4116 10.0116 40.6021 10.201L40.0741 10.324L39.5768 11.6306C39.3075 12.3466 38.0875 15.7246 36.8887 19.1385C35.6784 22.5518 34.2383 26.5905 33.6711 28.1253L32.6675 30.912L29.5282 33.7606C26.6809 36.3464 26.3385 36.6877 25.9159 37.4537C24.405 40.1906 24.7384 43.3371 26.7973 45.6238C28.4516 47.4488 30.7389 48.2525 33.1822 47.8474ZM30.4519 46.2093C27.8757 45.3906 26.1902 42.8338 26.5449 40.268C26.6566 39.4626 27.0183 38.5313 27.4823 37.8602L27.7596 37.4344L31.4065 41.4847L35.0534 45.535L34.3521 45.8691C33.0213 46.4947 31.7057 46.6111 30.4519 46.2093ZM32.5291 40.4078L28.8603 36.3332L30.9031 34.5049L32.9349 32.6644L36.6256 36.7633L40.3273 40.8744L38.3204 42.6814C37.2135 43.678 36.2904 44.4872 36.2557 44.4854C36.221 44.4836 34.5442 42.6458 32.5291 40.4078ZM50.9501 34.9876C56.1909 32.2839 60.5724 30.0566 60.6777 30.039C60.9708 29.9732 61.8141 30.9098 62.0898 31.6195C62.2943 32.1402 62.3254 32.4315 62.2709 33.4717C62.2352 34.1536 62.1459 34.7515 62.0845 34.8178C62.0121 34.872 58.9235 35.6488 55.2028 36.5432C51.4944 37.4267 46.9277 38.5433 45.0483 39.0242C43.181 39.4942 41.6081 39.8753 41.5381 39.8833C41.4797 39.8918 45.7098 37.6798 50.9501 34.9876ZM39.8393 37.3605C40.0333 37.1969 43.9748 34.0774 48.6279 30.4273C56.6411 24.1372 57.0875 23.8013 57.4306 23.8888C58.5407 24.1556 59.3614 24.8592 59.7692 25.9236C60.0151 26.5391 60.0577 26.8311 60.0153 27.6401L59.976 28.6115L50.2095 33.6392L40.443 38.667L39.9714 38.1555L39.5109 37.6562L39.8393 37.3605ZM38.0429 34.0446C38.5452 33.5263 42.0608 29.9093 45.8465 26.0052L52.7196 18.9136L53.236 19.0102C54.0043 19.1663 55.0069 19.7172 55.4206 20.2256C55.8776 20.7943 56.1369 21.5959 56.0585 22.206L55.9984 22.6896L47.2353 29.5778L38.4723 36.4661L37.7927 35.7235L37.1124 34.9925L38.0429 34.0446ZM35.3187 32.5112C35.4196 32.3542 38.1286 28.2082 41.3404 23.3121L47.1729 14.4045L48.1553 14.456C48.9637 14.5099 49.2387 14.5707 49.8367 14.8802C50.852 15.4085 51.466 16.2983 51.6152 17.4303C51.6664 17.7806 51.273 18.212 43.8744 25.8207L36.0836 33.8376L35.6127 33.3146C35.1631 32.8275 35.1533 32.7922 35.3187 32.5112ZM35.2515 28.266C35.9031 26.4459 37.5037 21.9985 38.7833 18.3686C40.0745 14.7394 41.1711 11.7258 41.2325 11.6595C41.3049 11.6053 41.9089 11.579 42.5908 11.6148C43.631 11.6693 43.9175 11.7306 44.4139 11.9884C45.046 12.3113 45.9239 13.2497 45.8516 13.524C45.8078 13.6955 34.1141 31.6136 34.0697 31.5765C34.0588 31.5644 34.5888 30.074 35.2515 28.266Z" fill="#151515"/>
<path d="M10.1186 80.5V70.3182H13.8473C14.5698 70.3182 15.1681 70.4375 15.642 70.6761C16.116 70.9115 16.4706 71.2313 16.706 71.6357C16.9413 72.0367 17.0589 72.4891 17.0589 72.9929C17.0589 73.4171 16.9811 73.7751 16.8253 74.0668C16.6695 74.3551 16.4607 74.5871 16.1989 74.7628C15.9403 74.9351 15.6553 75.0611 15.3438 75.1406V75.2401C15.6818 75.2566 16.0116 75.366 16.3331 75.5682C16.6579 75.767 16.9264 76.0504 17.1385 76.4183C17.3506 76.7862 17.4567 77.2337 17.4567 77.7607C17.4567 78.281 17.334 78.7483 17.0888 79.1626C16.8468 79.5736 16.4723 79.9001 15.9652 80.142C15.4581 80.3807 14.8101 80.5 14.0213 80.5H10.1186ZM11.6548 79.1825H13.8722C14.608 79.1825 15.1349 79.04 15.4531 78.755C15.7713 78.4699 15.9304 78.1136 15.9304 77.6861C15.9304 77.3646 15.8492 77.0696 15.6868 76.8011C15.5244 76.5327 15.2924 76.3189 14.9908 76.1598C14.6925 76.0007 14.3378 75.9212 13.9268 75.9212H11.6548V79.1825ZM11.6548 74.723H13.7131C14.0578 74.723 14.3677 74.6567 14.6428 74.5241C14.9212 74.3916 15.1416 74.206 15.304 73.9673C15.4697 73.7254 15.5526 73.4403 15.5526 73.1122C15.5526 72.6913 15.4051 72.3383 15.1101 72.0533C14.8151 71.7682 14.3627 71.6257 13.7528 71.6257H11.6548V74.723ZM21.3817 80.669C20.8978 80.669 20.4603 80.5795 20.0692 80.4006C19.6781 80.2183 19.3683 79.9548 19.1396 79.6101C18.9142 79.2654 18.8015 78.8428 18.8015 78.3423C18.8015 77.9115 18.8844 77.5568 19.0501 77.2784C19.2158 77 19.4395 76.7796 19.7212 76.6172C20.003 76.4548 20.3178 76.3321 20.6658 76.2493C21.0138 76.1664 21.3685 76.1035 21.7298 76.0604C22.1871 76.0073 22.5584 75.9643 22.8434 75.9311C23.1284 75.8946 23.3356 75.8366 23.4648 75.7571C23.5941 75.6776 23.6587 75.5483 23.6587 75.3693V75.3345C23.6587 74.9003 23.5361 74.5639 23.2908 74.3253C23.0489 74.0866 22.6876 73.9673 22.207 73.9673C21.7066 73.9673 21.3121 74.0784 21.0238 74.3004C20.7388 74.5192 20.5415 74.7628 20.4322 75.0312L19.0352 74.7131C19.2009 74.2491 19.4428 73.8745 19.761 73.5895C20.0825 73.3011 20.4521 73.0923 20.8697 72.9631C21.2873 72.8305 21.7264 72.7642 22.1871 72.7642C22.4921 72.7642 22.8152 72.8007 23.1566 72.8736C23.5013 72.9432 23.8228 73.0724 24.1211 73.2614C24.4227 73.4503 24.6696 73.7204 24.8619 74.0717C25.0541 74.4197 25.1502 74.8722 25.1502 75.429V80.5H23.6985V79.456H23.6388C23.5427 79.6482 23.3986 79.8371 23.2063 80.0227C23.0141 80.2083 22.7672 80.3625 22.4656 80.4851C22.1639 80.6077 21.8027 80.669 21.3817 80.669ZM21.7049 79.4759C22.1159 79.4759 22.4672 79.3946 22.7589 79.2322C23.0539 79.0698 23.2776 78.8577 23.43 78.5959C23.5858 78.3307 23.6637 78.0473 23.6637 77.7457V76.7614C23.6107 76.8144 23.5079 76.8641 23.3555 76.9105C23.2063 76.9536 23.0356 76.9917 22.8434 77.0249C22.6512 77.0547 22.4639 77.0829 22.2816 77.1094C22.0993 77.1326 21.9469 77.1525 21.8242 77.169C21.5359 77.2055 21.2724 77.2668 21.0337 77.353C20.7984 77.4392 20.6095 77.5634 20.467 77.7259C20.3278 77.8849 20.2582 78.0971 20.2582 78.3622C20.2582 78.7301 20.3941 79.0085 20.6658 79.1974C20.9376 79.383 21.284 79.4759 21.7049 79.4759ZM29.9888 80.6491C29.3723 80.6491 28.8221 80.4917 28.3382 80.1768C27.8577 79.8587 27.4798 79.4062 27.2047 78.8196C26.9329 78.2296 26.7971 77.522 26.7971 76.6967C26.7971 75.8714 26.9346 75.1655 27.2097 74.5788C27.4881 73.9922 27.8693 73.5431 28.3532 73.2315C28.8371 72.92 29.3856 72.7642 29.9988 72.7642C30.4727 72.7642 30.8539 72.8438 31.1422 73.0028C31.4339 73.1586 31.6593 73.3409 31.8184 73.5497C31.9808 73.7585 32.1067 73.9425 32.1962 74.1016H32.2857V70.3182H33.7722V80.5H32.3205V79.3118H32.1962C32.1067 79.4742 31.9775 79.6598 31.8084 79.8686C31.6427 80.0774 31.414 80.2597 31.1223 80.4155C30.8307 80.5713 30.4528 80.6491 29.9888 80.6491ZM30.3169 79.3814C30.7445 79.3814 31.1058 79.2687 31.4007 79.0433C31.699 78.8146 31.9244 78.4981 32.0769 78.0938C32.2327 77.6894 32.3105 77.2187 32.3105 76.6818C32.3105 76.1515 32.2343 75.6875 32.0819 75.2898C31.9294 74.892 31.7057 74.5821 31.4107 74.3601C31.1157 74.138 30.7511 74.027 30.3169 74.027C29.8695 74.027 29.4966 74.143 29.1983 74.375C28.9 74.607 28.6747 74.9235 28.5222 75.3246C28.373 75.7256 28.2985 76.178 28.2985 76.6818C28.2985 77.1922 28.3747 77.6513 28.5272 78.0589C28.6796 78.4666 28.905 78.7898 29.2033 79.0284C29.5049 79.2637 29.8761 79.3814 30.3169 79.3814ZM35.8938 80.5V72.8636H37.3207V74.1065H37.4151C37.5742 73.6856 37.8344 73.3575 38.1957 73.1222C38.5569 72.8835 38.9895 72.7642 39.4933 72.7642C40.0037 72.7642 40.4312 72.8835 40.7759 73.1222C41.1239 73.3608 41.3808 73.6889 41.5465 74.1065H41.6261C41.8084 73.6989 42.0984 73.3741 42.4961 73.1321C42.8938 72.8868 43.3678 72.7642 43.918 72.7642C44.6107 72.7642 45.1758 72.9813 45.6133 73.4155C46.0541 73.8497 46.2745 74.5043 46.2745 75.3793V80.5H44.788V75.5185C44.788 75.0014 44.6471 74.6269 44.3654 74.3949C44.0837 74.1629 43.7473 74.0469 43.3562 74.0469C42.8723 74.0469 42.4961 74.196 42.2276 74.4943C41.9592 74.7893 41.8249 75.1688 41.8249 75.6328V80.5H40.3434V75.424C40.3434 75.0097 40.2141 74.6766 39.9556 74.4247C39.6971 74.1728 39.3607 74.0469 38.9464 74.0469C38.6647 74.0469 38.4045 74.1214 38.1658 74.2706C37.9305 74.4164 37.7399 74.6203 37.5941 74.8821C37.4516 75.1439 37.3803 75.4472 37.3803 75.7919V80.5H35.8938ZM48.2669 80.5V72.8636H49.7534V80.5H48.2669ZM49.0176 71.6854C48.7591 71.6854 48.537 71.5992 48.3514 71.4268C48.1691 71.2512 48.0779 71.0424 48.0779 70.8004C48.0779 70.5552 48.1691 70.3464 48.3514 70.174C48.537 69.9983 48.7591 69.9105 49.0176 69.9105C49.2761 69.9105 49.4965 69.9983 49.6788 70.174C49.8644 70.3464 49.9572 70.5552 49.9572 70.8004C49.9572 71.0424 49.8644 71.2512 49.6788 71.4268C49.4965 71.5992 49.2761 71.6854 49.0176 71.6854ZM53.2397 75.9659V80.5H51.7532V72.8636H53.18V74.1065H53.2745C53.4502 73.7022 53.7253 73.3774 54.0998 73.1321C54.4776 72.8868 54.9532 72.7642 55.5266 72.7642C56.047 72.7642 56.5027 72.8736 56.8938 73.0923C57.2849 73.3078 57.5882 73.6293 57.8036 74.0568C58.0191 74.4844 58.1268 75.013 58.1268 75.6428V80.5H56.6403V75.8217C56.6403 75.2682 56.4961 74.8357 56.2077 74.5241C55.9194 74.2093 55.5233 74.0518 55.0195 74.0518C54.6748 74.0518 54.3683 74.1264 54.0998 74.2756C53.8346 74.4247 53.6242 74.6435 53.4684 74.9318C53.3159 75.2169 53.2397 75.5616 53.2397 75.9659ZM63.685 72.8636V74.0568H59.5138V72.8636H63.685ZM60.6325 71.0341H62.119V78.2578C62.119 78.5462 62.1621 78.7633 62.2482 78.9091C62.3344 79.0516 62.4454 79.1494 62.5813 79.2024C62.7205 79.2521 62.8713 79.277 63.0337 79.277C63.1531 79.277 63.2575 79.2687 63.3469 79.2521C63.4364 79.2356 63.506 79.2223 63.5558 79.2124L63.8242 80.4403C63.738 80.4735 63.6154 80.5066 63.4563 80.5398C63.2972 80.5762 63.0984 80.5961 62.8597 80.5994C62.4686 80.6061 62.104 80.5365 61.766 80.3906C61.4279 80.2448 61.1545 80.0194 60.9457 79.7145C60.7369 79.4096 60.6325 79.0268 60.6325 78.5661V71.0341ZM68.464 80.6541C67.748 80.6541 67.1233 80.4901 66.5897 80.1619C66.056 79.8338 65.6417 79.3748 65.3468 78.7848C65.0518 78.1948 64.9043 77.5054 64.9043 76.7166C64.9043 75.9245 65.0518 75.2318 65.3468 74.6385C65.6417 74.0452 66.056 73.5845 66.5897 73.2564C67.1233 72.9283 67.748 72.7642 68.464 72.7642C69.1799 72.7642 69.8046 72.9283 70.3382 73.2564C70.8719 73.5845 71.2862 74.0452 71.5811 74.6385C71.8761 75.2318 72.0236 75.9245 72.0236 76.7166C72.0236 77.5054 71.8761 78.1948 71.5811 78.7848C71.2862 79.3748 70.8719 79.8338 70.3382 80.1619C69.8046 80.4901 69.1799 80.6541 68.464 80.6541ZM68.4689 79.4062C68.9329 79.4062 69.3174 79.2836 69.6223 79.0384C69.9273 78.7931 70.1526 78.4666 70.2985 78.0589C70.4476 77.6513 70.5222 77.2022 70.5222 76.7116C70.5222 76.2244 70.4476 75.777 70.2985 75.3693C70.1526 74.9583 69.9273 74.6286 69.6223 74.38C69.3174 74.1314 68.9329 74.0071 68.4689 74.0071C68.0016 74.0071 67.6138 74.1314 67.3056 74.38C67.0007 74.6286 66.7736 74.9583 66.6245 75.3693C66.4786 75.777 66.4057 76.2244 66.4057 76.7116C66.4057 77.2022 66.4786 77.6513 66.6245 78.0589C66.7736 78.4666 67.0007 78.7931 67.3056 79.0384C67.6138 79.2836 68.0016 79.4062 68.4689 79.4062ZM75.1694 75.9659V80.5H73.6829V72.8636H75.1097V74.1065H75.2042C75.3799 73.7022 75.6549 73.3774 76.0295 73.1321C76.4073 72.8868 76.8829 72.7642 77.4563 72.7642C77.9767 72.7642 78.4324 72.8736 78.8235 73.0923C79.2146 73.3078 79.5179 73.6293 79.7333 74.0568C79.9487 74.4844 80.0565 75.013 80.0565 75.6428V80.5H78.57V75.8217C78.57 75.2682 78.4258 74.8357 78.1374 74.5241C77.8491 74.2093 77.453 74.0518 76.9492 74.0518C76.6045 74.0518 76.2979 74.1264 76.0295 74.2756C75.7643 74.4247 75.5539 74.6435 75.3981 74.9318C75.2456 75.2169 75.1694 75.5616 75.1694 75.9659Z" fill="#555555"/>
</svg>
