<svg width="38" height="44" viewBox="0 0 38 44" fill="none" xmlns="http://www.w3.org/2000/svg">
<path fill-rule="evenodd" clip-rule="evenodd" d="M13.1424 18.9C13.521 20.061 14.6125 20.9 15.9 20.9C17.1875 20.9 18.279 20.061 18.6576 18.9C21.4051 18.9 24.1525 18.9 26.9 18.9C27.3971 18.9 27.8 18.4971 27.8 18C27.8 17.5029 27.3971 17.1 26.9 17.1C24.1525 17.1 21.4051 17.1 18.6576 17.1C18.6479 17.0696 18.6609 17.1101 18.6576 17.1C18.279 15.939 17.1875 15.1 15.9 15.1C14.6125 15.1 13.521 15.939 13.1424 17.1C12.3949 17.1 11.6475 17.1 10.9 17.1C10.4029 17.1 10 17.5029 10 18C10 18.4971 10.4029 18.9 10.9 18.9C11.6475 18.9 12.3949 18.9 13.1424 18.9ZM15.9 16.9C15.2925 16.9 14.8 17.3925 14.8 18C14.8 18.6075 15.2925 19.1 15.9 19.1C16.5075 19.1 17 18.6075 17 18C17 17.3925 16.5075 16.9 15.9 16.9Z" fill="#111928"/>
<path fill-rule="evenodd" clip-rule="evenodd" d="M10 26C10 25.5029 10.4029 25.1 10.9 25.1C13.6475 25.1 16.3949 25.1 19.1424 25.1C19.521 23.939 20.6125 23.1 21.9 23.1C23.1875 23.1 24.279 23.939 24.6576 25.1C24.6576 25.1 26.3786 25.1 26.9 25.1C27.3971 25.1 27.8 25.5029 27.8 26C27.8 26.4971 27.3971 26.9 26.9 26.9C26.6778 26.9 24.6576 26.9 24.6576 26.9C24.279 28.061 23.1875 28.9 21.9 28.9C20.6125 28.9 19.521 28.061 19.1424 26.9C16.3949 26.9 13.6475 26.9 10.9 26.9C10.4029 26.9 10 26.4971 10 26ZM20.8 26C20.8 25.3925 21.2925 24.9 21.9 24.9C22.5075 24.9 23 25.3925 23 26C23 26.6075 22.5075 27.1 21.9 27.1C21.2925 27.1 20.8 26.6075 20.8 26Z" fill="#111928"/>
</svg>
