<svg width="91" height="90" viewBox="0 0 91 90" fill="none" xmlns="http://www.w3.org/2000/svg">
<path d="M57.5 19.5C57.5 18 59.6 17.1 60 19.5" stroke="white" stroke-width="2" stroke-linecap="round"/>
<path d="M26 41C26 43.5 29 44 29 41" stroke="white" stroke-width="2" stroke-linecap="round"/>
<path d="M31 43.5C31 45.5 33.5 46 33.5 43.5" stroke="white" stroke-width="2" stroke-linecap="round"/>
<path d="M62.5 22.0001C61.5 20 65.0001 19.5001 64.5 22.0001" stroke="white" stroke-width="2" stroke-linecap="round"/>
<path d="M34.5 28.5L56.5 28.5" stroke="white" stroke-width="2"/>
<path d="M34.5 32.5L56.5 32.5" stroke="white" stroke-width="2"/>
<path d="M31.125 16.0215C30.1973 16.3633 29.5332 17.0566 29.2305 17.9746C29.1426 18.2481 29.0547 18.4727 29.0449 18.4824C29.0352 18.502 28.8203 18.4434 28.5664 18.3555C27.9023 18.1309 26.75 18.1992 26.1152 18.5117C25.4512 18.834 24.8555 19.4785 24.6113 20.1328C24.416 20.6406 24.4062 20.8652 24.4062 24.5176V28.375H24.0645C23.0684 28.375 21.8672 29.2539 21.4863 30.2793C21.2129 31.0117 21.2129 31.9883 21.4863 32.7207C21.8672 33.7363 23.0684 34.625 24.0645 34.625H24.3965L24.4258 38.5996L24.4551 42.584L24.6895 43.0625C24.9824 43.6582 25.5391 44.2051 26.1445 44.5078C26.75 44.8008 27.9121 44.8691 28.5664 44.6445C28.8203 44.5566 29.0352 44.4981 29.0449 44.5176C29.0547 44.5273 29.1426 44.7617 29.2305 45.0352C29.543 45.9824 30.3242 46.7441 31.3008 47.0273C31.916 47.2129 33.0586 47.1152 33.625 46.832C34.2793 46.5195 34.9043 45.8457 35.1484 45.2012C35.334 44.7031 35.3438 44.4395 35.3438 39.6543V34.625H45.5H55.6562V39.6543C55.6562 44.4883 55.666 44.6934 55.8613 45.2109C56.0957 45.8359 56.7109 46.5195 57.3262 46.8418C57.9121 47.1445 59.1523 47.2129 59.8262 46.9883C60.7734 46.6758 61.4473 45.9824 61.7695 45.0254C61.8574 44.752 61.9453 44.5273 61.9551 44.5176C61.9648 44.4981 62.1797 44.5566 62.4336 44.6445C63.0879 44.8691 64.25 44.8008 64.8555 44.5078C65.5098 44.1856 66.1641 43.4922 66.3984 42.8574C66.584 42.3594 66.5938 42.1055 66.5938 38.4824V34.625H66.9355C67.9316 34.625 69.1328 33.7461 69.5137 32.7207C69.7871 31.9883 69.7871 31.0117 69.5137 30.2793C69.1328 29.2539 67.9316 28.375 66.9355 28.375H66.5938V24.5176C66.5938 20.8652 66.584 20.6406 66.3887 20.1328C66.1445 19.4785 65.5488 18.834 64.8848 18.5117C64.25 18.1992 63.0977 18.1309 62.4336 18.3555C62.1797 18.4434 61.9648 18.502 61.9551 18.4824C61.9453 18.4727 61.8574 18.2383 61.7695 17.9648C61.4668 17.0273 60.7832 16.334 59.8164 16.0117C59.1621 15.7871 57.9121 15.8555 57.3262 16.1582C56.7109 16.4805 56.0957 17.1641 55.8613 17.7891C55.666 18.3066 55.6562 18.5117 55.6562 23.3457V28.375H45.5H35.3438V23.3457C35.3438 18.5117 35.334 18.3066 35.1387 17.7891C34.8945 17.1348 34.2988 16.4902 33.6348 16.168C33.0391 15.875 31.7109 15.7969 31.125 16.0215ZM33 17.7598C33.1855 17.877 33.4199 18.1309 33.5273 18.3164C33.7324 18.6582 33.7324 18.7168 33.7324 31.5C33.7324 44.2832 33.7324 44.3418 33.5273 44.6836C32.9121 45.7285 31.5254 45.7285 30.9102 44.6836C30.7051 44.3418 30.7051 44.2832 30.7051 31.5C30.7051 18.7168 30.7051 18.6582 30.9102 18.3164C31.2031 17.8184 31.6719 17.5352 32.2188 17.5352C32.5312 17.5352 32.7852 17.6035 33 17.7598ZM59.5625 17.7598C59.748 17.877 59.9824 18.1309 60.0898 18.3164C60.2949 18.6582 60.2949 18.7168 60.2949 31.5C60.2949 44.2832 60.2949 44.3418 60.0898 44.6836C59.4746 45.7285 58.0879 45.7285 57.4727 44.6836C57.2676 44.3418 57.2676 44.2832 57.2676 31.5C57.2676 18.7168 57.2676 18.6582 57.4727 18.3164C57.7656 17.8184 58.2344 17.5352 58.7812 17.5352C59.0938 17.5352 59.3477 17.6035 59.5625 17.7598ZM28.3125 20.1035C28.498 20.2207 28.7324 20.4746 28.8398 20.6602C29.0449 21.002 29.0449 21.0898 29.0449 31.5C29.0449 41.9102 29.0449 41.9981 28.8398 42.3398C28.2246 43.3848 26.8379 43.3848 26.2227 42.3398C26.0176 41.9981 26.0176 41.9102 26.0176 31.5C26.0176 21.0898 26.0176 21.002 26.2227 20.6602C26.5156 20.1621 26.9844 19.8789 27.5312 19.8789C27.8438 19.8789 28.0977 19.9473 28.3125 20.1035ZM64.25 20.1035C64.4355 20.2207 64.6699 20.4746 64.7773 20.6602C64.9824 21.002 64.9824 21.0898 64.9824 31.5C64.9824 41.9102 64.9824 41.9981 64.7773 42.3398C64.1621 43.3848 62.7754 43.3848 62.1602 42.3398C61.9551 41.9981 61.9551 41.9102 61.9551 31.5C61.9551 21.0898 61.9551 21.002 62.1602 20.6602C62.4531 20.1621 62.9219 19.8789 63.4688 19.8789C63.7812 19.8789 64.0352 19.9473 64.25 20.1035ZM55.6562 31.5V33.0625H45.5H35.3438V31.5V29.9375H45.5H55.6562V31.5ZM24.4062 31.5C24.4062 32.9551 24.4062 32.9648 24.1914 32.9648C23.5664 32.9648 22.9414 32.2227 22.9414 31.5C22.9414 30.7773 23.5664 30.0352 24.1914 30.0352C24.4062 30.0352 24.4062 30.0449 24.4062 31.5ZM67.3555 30.2305C68.293 30.8066 68.293 32.1934 67.3555 32.7695C67.1797 32.877 66.9355 32.9648 66.8184 32.9648C66.5938 32.9648 66.5938 32.9551 66.5938 31.5C66.5938 30.0449 66.5938 30.0352 66.8184 30.0352C66.9355 30.0352 67.1797 30.1231 67.3555 30.2305Z" fill="black"/>
<path d="M38.0092 73.5348C37.9131 73.2332 37.7839 72.9631 37.6214 72.7244C37.4624 72.4825 37.2718 72.277 37.0497 72.108C36.8277 71.9356 36.5741 71.8047 36.2891 71.7152C36.0073 71.6257 35.6974 71.581 35.3594 71.581C34.786 71.581 34.2689 71.7285 33.8082 72.0234C33.3475 72.3184 32.983 72.7509 32.7145 73.321C32.4493 73.8878 32.3168 74.5821 32.3168 75.4041C32.3168 76.2294 32.451 76.9271 32.7195 77.4972C32.9879 78.0672 33.3558 78.4998 33.8232 78.7947C34.2905 79.0897 34.8224 79.2372 35.419 79.2372C35.9725 79.2372 36.4548 79.1245 36.8658 78.8991C37.2801 78.6738 37.5999 78.3556 37.8253 77.9446C38.054 77.5303 38.1683 77.0431 38.1683 76.483L38.5661 76.5575H35.6527V75.2898H39.6548V76.4482C39.6548 77.3033 39.4725 78.0457 39.108 78.6754C38.7467 79.3018 38.2462 79.7857 37.6065 80.1271C36.9702 80.4685 36.241 80.6392 35.419 80.6392C34.4976 80.6392 33.6889 80.4271 32.9929 80.0028C32.3002 79.5786 31.7599 78.977 31.3722 78.1982C30.9844 77.416 30.7905 76.4879 30.7905 75.4141C30.7905 74.602 30.9032 73.8729 31.1286 73.2266C31.3539 72.5803 31.6705 72.0317 32.0781 71.581C32.4891 71.1269 32.9714 70.7805 33.5249 70.5419C34.0817 70.3 34.6899 70.179 35.3494 70.179C35.8996 70.179 36.4117 70.2602 36.8857 70.4226C37.3629 70.585 37.7872 70.8153 38.1584 71.1136C38.5329 71.4119 38.8428 71.7666 39.0881 72.1776C39.3333 72.5852 39.4991 73.0376 39.5852 73.5348H38.0092ZM42.4252 83.3636C42.2032 83.3636 42.001 83.3454 41.8187 83.3089C41.6364 83.2758 41.5005 83.2393 41.411 83.1996L41.769 81.9815C42.0408 82.0545 42.2827 82.0859 42.4949 82.076C42.707 82.0661 42.8942 81.9865 43.0566 81.8374C43.2224 81.6882 43.3682 81.4446 43.4941 81.1065L43.6781 80.5994L40.8841 72.8636H42.475L44.4089 78.7898H44.4885L46.4224 72.8636H48.0183L44.8713 81.5192C44.7254 81.9169 44.5398 82.2533 44.3145 82.5284C44.0891 82.8068 43.8206 83.0156 43.5091 83.1548C43.1975 83.294 42.8362 83.3636 42.4252 83.3636ZM49.4153 80.5V72.8636H50.8422V74.1065H50.9366C51.0957 73.6856 51.3559 73.3575 51.7172 73.1222C52.0784 72.8835 52.5109 72.7642 53.0147 72.7642C53.5252 72.7642 53.9527 72.8835 54.2974 73.1222C54.6454 73.3608 54.9023 73.6889 55.068 74.1065H55.1475C55.3298 73.6989 55.6199 73.3741 56.0176 73.1321C56.4153 72.8868 56.8893 72.7642 57.4395 72.7642C58.1322 72.7642 58.6973 72.9813 59.1348 73.4155C59.5756 73.8497 59.796 74.5043 59.796 75.3793V80.5H58.3095V75.5185C58.3095 75.0014 58.1686 74.6269 57.8869 74.3949C57.6052 74.1629 57.2688 74.0469 56.8777 74.0469C56.3938 74.0469 56.0176 74.196 55.7491 74.4943C55.4806 74.7893 55.3464 75.1688 55.3464 75.6328V80.5H53.8649V75.424C53.8649 75.0097 53.7356 74.6766 53.4771 74.4247C53.2186 74.1728 52.8822 74.0469 52.4679 74.0469C52.1861 74.0469 51.926 74.1214 51.6873 74.2706C51.452 74.4164 51.2614 74.6203 51.1156 74.8821C50.9731 75.1439 50.9018 75.4472 50.9018 75.7919V80.5H49.4153Z" fill="#555555"/>
</svg>
