<svg width="91" height="90" viewBox="0 0 91 90" fill="none" xmlns="http://www.w3.org/2000/svg">
<path d="M57.5 21C59.5 20.5 59 17.8997 57.5 17.8997H44C43.6667 17.8997 43 18.2001 43 19.0001C43 19.8001 45.6667 26.6667 47 30.0001C47.1667 30.5 47.2 31.7 46 32.5L38.5 38" stroke="white" stroke-width="2" stroke-linecap="round"/>
<path d="M56.5 29C59.5 24 67.5 27.9999 62.5 33.4999" stroke="white" stroke-width="2" stroke-linecap="round"/>
<path d="M28 24.5H33M28.5 27.5H35" stroke="white" stroke-width="1.5" stroke-linecap="round"/>
<path d="M32 21.5H36.5" stroke="white" stroke-width="1.5" stroke-linecap="round"/>
<path d="M43.0879 16.0507C42.4336 16.285 41.9355 16.6757 41.584 17.2323C41.1934 17.8475 41.0762 18.3358 41.1348 19.1464C41.1738 19.7518 41.3984 20.3866 43.1465 24.7518C45.207 29.9081 45.2754 30.1522 44.9434 30.7284C44.8457 30.8846 42.9414 32.3886 40.5684 34.1659L36.3691 37.33L35.7637 37.3886C35.0508 37.4667 34.6113 37.6327 33.6055 38.1991C32.3066 38.9413 30.8906 39.41 29.1523 39.6542C28.4199 39.7616 28.1367 39.8397 27.9609 40.0057C27.6582 40.2889 27.6582 40.7577 27.9414 41.119C28.1562 41.3925 28.1563 41.3925 29.0352 41.3339C30.7344 41.2167 32.8535 40.5526 34.6309 39.5956C36.0762 38.8143 36.5645 38.8827 38.1172 40.0839C40.4902 41.9198 42.5801 41.9393 44.7676 40.1327C46.7012 38.5507 48.5176 38.5507 50.5977 40.1327C53.0195 41.9882 55.3438 41.8905 57.6191 39.8495C58.5566 38.9999 58.8789 38.8046 59.3184 38.8046C59.7383 38.8046 60.1387 39.0194 60.9688 39.7225C61.7793 40.4061 62.9414 40.9921 63.9277 41.2069C64.3477 41.3046 65.0898 41.3632 65.7441 41.3632C66.7109 41.3632 66.8965 41.3339 67.1113 41.1678C67.4043 40.9335 67.502 40.5819 67.375 40.2303C67.1992 39.7714 67.0234 39.7128 65.9102 39.703C64.2012 39.703 63.0684 39.2928 61.8672 38.2382C61.1348 37.6132 60.5684 37.2811 60.0117 37.1932C59.7969 37.1639 59.6113 37.0565 59.5137 36.91C59.4355 36.7831 59.2988 36.578 59.2207 36.4511L59.0742 36.2264L59.9824 36.2655C62.0918 36.3534 63.9277 35.4354 65.0996 33.7264C65.7344 32.7792 66.0176 31.9296 66.0762 30.7186C66.1348 29.6249 65.959 28.7557 65.5098 27.8378C63.7617 24.2831 58.9961 23.4921 56.1836 26.2753C55.4121 27.0468 54.9727 27.7401 54.709 28.6386C54.6113 28.9803 54.5137 29.2538 54.4844 29.2538C54.4551 29.2538 54.3672 29.1464 54.2891 29.0194C54.2109 28.8925 53.3125 27.535 52.2969 25.9921C50.793 23.7167 50.4805 23.1698 50.5781 23.0526C50.6758 22.9354 51.3301 22.9159 54.5625 22.8866L58.4395 22.8573L58.9766 22.6034C59.7773 22.2225 60.2949 21.7245 60.6562 20.9725C60.959 20.3671 60.9785 20.2499 60.9785 19.3417C60.9785 18.4139 60.959 18.3358 60.6465 17.7499C60.2461 17.0175 59.7285 16.5292 58.9863 16.1776L58.4395 15.9237L51.0176 15.9042C44.0938 15.8846 43.5664 15.8944 43.0879 16.0507ZM58.3613 17.7108C58.9961 18.0429 59.3184 18.5995 59.3184 19.3417C59.3184 20.0839 58.9961 20.6405 58.3613 20.9725C57.9609 21.1971 57.873 21.1971 53.9961 21.246C50.3047 21.2948 50.0215 21.3046 49.7285 21.4803C48.9277 21.9686 48.6055 23.0526 49.0059 23.9315C49.1035 24.1464 51.1445 27.2811 53.5469 30.9042C55.9492 34.5175 57.9023 37.4862 57.8828 37.496C57.6582 37.6229 56.9453 38.2089 56.457 38.6581C55.7246 39.3319 54.9336 39.7225 54.1914 39.7811C53.4395 39.8397 52.9609 39.6835 52.0918 39.0878C50.1484 37.7792 49.6797 37.5546 48.4004 37.3593C47.0527 37.1542 45.5684 37.535 44.377 38.3944C42.3164 39.8593 42.541 39.7518 41.6523 39.7518C40.998 39.7518 40.7637 39.703 40.2949 39.4882C39.8359 39.2733 38.9863 38.6874 38.332 38.1307C38.293 38.0917 40.002 36.744 42.1406 35.1327C46.2227 32.0663 46.4375 31.8612 46.6816 30.9628C46.7402 30.7479 46.7695 30.2401 46.7402 29.8397C46.6914 29.1659 46.5254 28.6874 44.7285 24.1952C43.498 21.1093 42.7656 19.1464 42.7656 18.9413C42.7656 18.3163 43.2637 17.6815 43.8594 17.535C44.0352 17.4862 47.2773 17.4569 51.0664 17.4667C51.0664 17.4667 56.4999 17.4667 57.9512 17.4862C58.0859 17.488 58.3613 17.7108 58.3613 17.7108ZM61.2715 26.3827C64.4941 27.2128 65.5098 31.2167 63.0879 33.4921C61.8281 34.6639 60.002 34.9374 58.4395 34.1757C56.8184 33.3846 55.8223 31.4608 56.1348 29.7518C56.5938 27.2909 58.918 25.7675 61.2715 26.3827Z" fill="#151515"/>
<path d="M29.9532 21.7344C29.6992 21.998 29.6602 22.0859 29.709 22.3984C29.8262 23.1113 29.7774 23.1016 33.6055 23.1016H37.0137L37.2481 22.8574C37.3946 22.7109 37.4922 22.5059 37.4922 22.3301C37.4922 21.4609 37.4239 21.4414 33.5371 21.4414H30.2461L29.9532 21.7344Z" fill="#151515"/>
<path d="M26.8965 24.8105C26.5547 25.1426 26.5742 25.5723 26.9355 25.9434L27.2187 26.2266H30.4804C33.9961 26.2266 34.1133 26.207 34.3476 25.6992C34.5039 25.3867 34.4355 25.0254 34.1718 24.7617C33.9863 24.5762 33.83 24.5664 30.5586 24.5664H27.1308L26.8965 24.8105Z" fill="#151515"/>
<path d="M36.1347 24.7324C36.0176 24.8301 35.9004 25.0645 35.8711 25.2598C35.8222 25.543 35.8613 25.6602 36.0566 25.8945L36.3008 26.1777H37.9316H39.5625L39.8066 25.8945C40.0019 25.6602 40.041 25.543 39.9922 25.2598C39.8945 24.625 39.7285 24.5664 37.9316 24.5664C36.5644 24.5664 36.3105 24.5859 36.1347 24.7324Z" fill="#151515"/>
<path d="M23.8789 27.7988C23.6738 27.9551 23.625 28.082 23.625 28.4238C23.625 28.7656 23.6738 28.8926 23.8789 29.0488C24.1328 29.2539 24.2207 29.2539 29.8262 29.2539C35.4316 29.2539 35.5195 29.2539 35.7734 29.0488C36.125 28.7754 36.1348 28.1797 35.7832 27.8379L35.5488 27.5938H29.8457C24.2207 27.5938 24.1328 27.5938 23.8789 27.7988Z" fill="#151515"/>
<path d="M54.9531 42.9745C54.4648 43.1503 53.9082 43.5507 53.0684 44.3027C52.2383 45.0449 51.5254 45.3964 50.7051 45.4453C49.9629 45.4941 49.3477 45.2402 48.1855 44.4003C46.7402 43.3456 45.6855 42.9745 44.2305 42.9843C42.7656 42.9941 41.6621 43.4335 40.1777 44.6152C39.1133 45.4648 38.2832 45.6406 37.2285 45.2597C36.6426 45.0351 36.3398 44.8495 35.2461 43.9999C34.4258 43.3652 33.6055 43.0917 32.5605 43.082L31.7695 43.0722L30.168 43.873C28.4395 44.7421 27.0527 45.1816 25.5879 45.3281C24.6895 45.416 24.3672 45.6406 24.3672 46.1972C24.3672 46.4804 24.4355 46.6171 24.6406 46.7929C24.9531 47.0663 25.1973 47.0761 26.4082 46.8808C28.1465 46.5976 29.748 46.0605 31.2422 45.2499C32.6875 44.4589 33.2832 44.5273 34.6504 45.6308C36.2324 46.9003 37.8145 47.3593 39.2793 46.9785C40.0508 46.7831 40.6465 46.4609 41.4473 45.8163C42.7461 44.7714 43.8789 44.4199 45.0508 44.7128C45.8906 44.9179 46.5449 45.2499 47.2969 45.8456C49.4941 47.5937 51.9453 47.5644 54.0547 45.7675C55.5684 44.4785 55.6758 44.4101 56.291 44.5273C56.4766 44.5663 56.8184 44.7421 57.043 44.9277C58.791 46.3437 59.5234 46.7245 60.9785 46.9785C62.4434 47.2324 63.5566 47.1347 63.8887 46.7245C64.1035 46.4511 64.1035 45.9335 63.8691 45.6503C63.7031 45.4453 63.6055 45.4257 62.5312 45.4062C60.7148 45.3671 59.7188 45.0058 58.498 43.9413C57.5801 43.1406 57.043 42.8964 56.0957 42.8574C55.5879 42.8378 55.1875 42.8769 54.9531 42.9745Z" fill="#151515"/>
<path d="M17.1719 72.9929C17.1188 72.5223 16.9001 72.1577 16.5156 71.8991C16.1312 71.6373 15.6473 71.5064 15.0639 71.5064C14.6463 71.5064 14.285 71.5727 13.9801 71.7053C13.6752 71.8345 13.4382 72.0135 13.2692 72.2422C13.1035 72.4676 13.0206 72.7244 13.0206 73.0128C13.0206 73.2547 13.0769 73.4635 13.1896 73.6392C13.3056 73.8149 13.4564 73.9624 13.642 74.0817C13.831 74.1977 14.0331 74.2955 14.2486 74.375C14.464 74.4512 14.6712 74.5142 14.87 74.5639L15.8643 74.8224C16.1892 74.902 16.5223 75.0097 16.8636 75.1456C17.205 75.2815 17.5215 75.4605 17.8132 75.6825C18.1049 75.9046 18.3402 76.1797 18.5192 76.5078C18.7015 76.8359 18.7926 77.2287 18.7926 77.6861C18.7926 78.2628 18.6435 78.7749 18.3452 79.2223C18.0502 79.6697 17.621 80.0227 17.0575 80.2812C16.4974 80.5398 15.8196 80.669 15.0241 80.669C14.2618 80.669 13.6023 80.5481 13.0455 80.3061C12.4886 80.0642 12.0528 79.7211 11.7379 79.277C11.4231 78.8295 11.2491 78.2992 11.2159 77.6861H12.7571C12.7869 78.054 12.9063 78.3606 13.1151 78.6058C13.3272 78.8478 13.5973 79.0284 13.9254 79.1477C14.2569 79.2637 14.6198 79.3217 15.0142 79.3217C15.4484 79.3217 15.8345 79.2538 16.1726 79.1179C16.514 78.9787 16.7824 78.7865 16.978 78.5412C17.1735 78.2926 17.2713 78.0026 17.2713 77.6712C17.2713 77.3696 17.1851 77.1226 17.0128 76.9304C16.8438 76.7382 16.6134 76.5791 16.3217 76.4531C16.0334 76.3272 15.7069 76.2161 15.3423 76.12L14.1392 75.7919C13.3239 75.5698 12.6776 75.2434 12.2003 74.8125C11.7263 74.3816 11.4893 73.8116 11.4893 73.1023C11.4893 72.5156 11.6484 72.0036 11.9666 71.5661C12.2848 71.1286 12.7157 70.7888 13.2592 70.5469C13.8028 70.3016 14.416 70.179 15.0987 70.179C15.7881 70.179 16.3963 70.3 16.9233 70.5419C17.4536 70.7839 17.8712 71.117 18.1761 71.5412C18.4811 71.9621 18.6402 72.446 18.6534 72.9929H17.1719ZM22.1646 80.5L19.9174 72.8636H21.4537L22.9501 78.4716H23.0247L24.5261 72.8636H26.0623L27.5538 78.4467H27.6284L29.1149 72.8636H30.6511L28.4089 80.5H26.8926L25.3414 74.9865H25.2271L23.676 80.5H22.1646ZM32.0618 80.5V72.8636H33.5483V80.5H32.0618ZM32.8125 71.6854C32.554 71.6854 32.3319 71.5992 32.1463 71.4268C31.964 71.2512 31.8729 71.0424 31.8729 70.8004C31.8729 70.5552 31.964 70.3464 32.1463 70.174C32.3319 69.9983 32.554 69.9105 32.8125 69.9105C33.071 69.9105 33.2914 69.9983 33.4737 70.174C33.6593 70.3464 33.7521 70.5552 33.7521 70.8004C33.7521 71.0424 33.6593 71.2512 33.4737 71.4268C33.2914 71.5992 33.071 71.6854 32.8125 71.6854ZM35.5481 80.5V72.8636H36.975V74.1065H37.0694C37.2285 73.6856 37.4887 73.3575 37.85 73.1222C38.2112 72.8835 38.6438 72.7642 39.1475 72.7642C39.658 72.7642 40.0855 72.8835 40.4302 73.1222C40.7782 73.3608 41.0351 73.6889 41.2008 74.1065H41.2804C41.4627 73.6989 41.7527 73.3741 42.1504 73.1321C42.5481 72.8868 43.0221 72.7642 43.5723 72.7642C44.265 72.7642 44.8301 72.9813 45.2676 73.4155C45.7084 73.8497 45.9288 74.5043 45.9288 75.3793V80.5H44.4423V75.5185C44.4423 75.0014 44.3014 74.6269 44.0197 74.3949C43.738 74.1629 43.4016 74.0469 43.0105 74.0469C42.5266 74.0469 42.1504 74.196 41.8819 74.4943C41.6135 74.7893 41.4792 75.1688 41.4792 75.6328V80.5H39.9977V75.424C39.9977 75.0097 39.8684 74.6766 39.6099 74.4247C39.3514 74.1728 39.015 74.0469 38.6007 74.0469C38.319 74.0469 38.0588 74.1214 37.8201 74.2706C37.5848 74.4164 37.3942 74.6203 37.2484 74.8821C37.1059 75.1439 37.0346 75.4472 37.0346 75.7919V80.5H35.5481ZM47.9212 80.5V72.8636H49.348V74.1065H49.4425C49.6016 73.6856 49.8617 73.3575 50.223 73.1222C50.5843 72.8835 51.0168 72.7642 51.5206 72.7642C52.031 72.7642 52.4586 72.8835 52.8033 73.1222C53.1513 73.3608 53.4081 73.6889 53.5739 74.1065H53.6534C53.8357 73.6989 54.1257 73.3741 54.5234 73.1321C54.9212 72.8868 55.3951 72.7642 55.9453 72.7642C56.638 72.7642 57.2031 72.9813 57.6406 73.4155C58.0814 73.8497 58.3018 74.5043 58.3018 75.3793V80.5H56.8153V75.5185C56.8153 75.0014 56.6745 74.6269 56.3928 74.3949C56.111 74.1629 55.7746 74.0469 55.3835 74.0469C54.8996 74.0469 54.5234 74.196 54.255 74.4943C53.9865 74.7893 53.8523 75.1688 53.8523 75.6328V80.5H52.3707V75.424C52.3707 75.0097 52.2415 74.6766 51.983 74.4247C51.7244 74.1728 51.388 74.0469 50.9737 74.0469C50.692 74.0469 50.4318 74.1214 50.1932 74.2706C49.9579 74.4164 49.7673 74.6203 49.6214 74.8821C49.4789 75.1439 49.4077 75.4472 49.4077 75.7919V80.5H47.9212ZM60.2942 80.5V72.8636H61.7807V80.5H60.2942ZM61.0449 71.6854C60.7864 71.6854 60.5643 71.5992 60.3787 71.4268C60.1964 71.2512 60.1053 71.0424 60.1053 70.8004C60.1053 70.5552 60.1964 70.3464 60.3787 70.174C60.5643 69.9983 60.7864 69.9105 61.0449 69.9105C61.3034 69.9105 61.5239 69.9983 61.7061 70.174C61.8917 70.3464 61.9846 70.5552 61.9846 70.8004C61.9846 71.0424 61.8917 71.2512 61.7061 71.4268C61.5239 71.5992 61.3034 71.6854 61.0449 71.6854ZM65.267 75.9659V80.5H63.7805V72.8636H65.2074V74.1065H65.3018C65.4775 73.7022 65.7526 73.3774 66.1271 73.1321C66.505 72.8868 66.9806 72.7642 67.554 72.7642C68.0743 72.7642 68.5301 72.8736 68.9212 73.0923C69.3123 73.3078 69.6155 73.6293 69.831 74.0568C70.0464 74.4844 70.1541 75.013 70.1541 75.6428V80.5H68.6676V75.8217C68.6676 75.2682 68.5234 74.8357 68.2351 74.5241C67.9467 74.2093 67.5507 74.0518 67.0469 74.0518C66.7022 74.0518 66.3956 74.1264 66.1271 74.2756C65.862 74.4247 65.6515 74.6435 65.4957 74.9318C65.3433 75.2169 65.267 75.5616 65.267 75.9659ZM75.3494 83.5227C74.7429 83.5227 74.2209 83.4432 73.7834 83.2841C73.3492 83.125 72.9946 82.9145 72.7195 82.6527C72.4444 82.3909 72.2389 82.1042 72.103 81.7926L73.3807 81.2656C73.4702 81.4115 73.5895 81.5656 73.7386 81.728C73.8911 81.8937 74.0966 82.0346 74.3551 82.1506C74.617 82.2666 74.9534 82.3246 75.3643 82.3246C75.9278 82.3246 76.3935 82.187 76.7614 81.9119C77.1293 81.6402 77.3132 81.206 77.3132 80.6094V79.108H77.2188C77.1293 79.2704 77 79.451 76.831 79.6499C76.6652 79.8487 76.4366 80.0211 76.1449 80.1669C75.8532 80.3127 75.4737 80.3857 75.0064 80.3857C74.4032 80.3857 73.8596 80.2448 73.3757 79.9631C72.8951 79.678 72.514 79.2588 72.2322 78.7053C71.9538 78.1484 71.8146 77.464 71.8146 76.652C71.8146 75.84 71.9522 75.1439 72.2273 74.5639C72.5057 73.9839 72.8868 73.5398 73.3707 73.2315C73.8546 72.92 74.4032 72.7642 75.0163 72.7642C75.4903 72.7642 75.8731 72.8438 76.1648 73.0028C76.4564 73.1586 76.6835 73.3409 76.8459 73.5497C77.0116 73.7585 77.1392 73.9425 77.2287 74.1016H77.3381V72.8636H78.7947V80.669C78.7947 81.3253 78.6423 81.8639 78.3374 82.2848C78.0324 82.7057 77.6198 83.0173 77.0994 83.2195C76.5824 83.4216 75.9991 83.5227 75.3494 83.5227ZM75.3345 79.1527C75.7621 79.1527 76.1233 79.0533 76.4183 78.8544C76.7166 78.6522 76.942 78.3639 77.0945 77.9893C77.2502 77.6115 77.3281 77.1591 77.3281 76.6321C77.3281 76.1184 77.2519 75.666 77.0994 75.2749C76.947 74.8838 76.7232 74.5788 76.4283 74.3601C76.1333 74.138 75.7687 74.027 75.3345 74.027C74.8871 74.027 74.5142 74.143 74.2159 74.375C73.9176 74.6037 73.6922 74.9152 73.5398 75.3097C73.3906 75.7041 73.3161 76.1449 73.3161 76.6321C73.3161 77.1326 73.3923 77.5717 73.5447 77.9496C73.6972 78.3274 73.9226 78.6224 74.2209 78.8345C74.5225 79.0466 74.8937 79.1527 75.3345 79.1527Z" fill="#555555"/>
</svg>
