<svg width="91" height="90" viewBox="0 0 91 90" fill="none" xmlns="http://www.w3.org/2000/svg">
<path d="M44.3965 9.66779C42.7559 10.117 41.4277 11.3963 40.8613 13.0662C40.6269 13.7791 40.6172 13.8768 40.6172 16.3768C40.6172 17.7928 40.666 19.1404 40.7246 19.3846C40.8906 20.117 41.3789 21.0154 41.9551 21.6307C42.3164 22.0213 42.4531 22.2264 42.3652 22.2557C42.2871 22.285 41.0859 22.6658 39.6894 23.1053C38.293 23.5447 36.9355 23.9842 36.6816 24.0818C35.5293 24.5408 34.3672 25.5467 33.6934 26.6795C33.3906 27.1873 32.8828 28.574 31.6426 32.3143C30.6855 35.1756 29.8652 37.451 29.709 37.7049C29.5234 37.9979 28.2441 39.16 25.793 41.2693C23.791 42.9881 22.0625 44.5311 21.9648 44.7068C21.4375 45.5565 21.9648 46.3865 23.4004 46.9822C23.7422 47.119 23.9473 47.2654 23.9277 47.3338C23.3906 48.9842 23.4101 50.117 24.0156 51.3475L24.2891 51.9041H22.5898C21.0176 51.9041 20.8711 51.9236 20.6953 52.0994C20.3926 52.4022 20.4316 53.0076 20.7539 53.2615L21.0176 53.4666H45.5H69.9824L70.2461 53.2615C70.5684 53.0076 70.6074 52.4022 70.3047 52.0994C70.1289 51.9236 69.9824 51.9041 68.5957 51.9041C67.7656 51.9041 67.082 51.8748 67.082 51.826C67.082 51.7869 67.1504 51.6697 67.2383 51.5623C67.4824 51.2303 67.7656 50.1561 67.7656 49.5115C67.7656 48.867 67.4824 47.7928 67.2383 47.4608C67.0234 47.1873 67.043 47.158 67.4531 47.0408C67.9121 46.9041 68.8008 46.3475 68.9863 46.074C69.0644 45.9568 69.1621 45.6736 69.1914 45.4393C69.2402 45.0975 69.2012 44.951 69.0156 44.6776C68.8887 44.492 67.1699 42.949 65.1973 41.2596C62.8535 39.2576 61.5059 38.0272 61.3203 37.744C61.1348 37.4608 60.4316 35.5076 59.3672 32.324C57.541 26.8651 57.3555 26.4451 56.3203 25.4295C55.3535 24.4725 54.7383 24.1795 51.75 23.2322C50.2754 22.7733 49.0547 22.3729 49.0352 22.3631C49.0156 22.3436 49.2402 22.0994 49.5234 21.8162C50.1973 21.1424 50.6269 20.3807 50.8711 19.4236C51.0371 18.7791 51.0664 18.3494 51.0664 16.4647C51.0664 13.9158 50.9687 13.2908 50.4219 12.2459C49.7773 11.0252 48.6055 10.0682 47.2676 9.67755C46.623 9.492 45.0703 9.48224 44.3965 9.66779ZM47.3652 11.4061C48.1074 11.7674 48.791 12.4705 49.1523 13.2322L49.4551 13.867V16.4061V18.9451L49.1426 19.5994C48.0488 21.9041 45.2363 22.5096 43.3906 20.8299C43.0781 20.5369 42.7168 20.0779 42.541 19.7361L42.2285 19.1404L42.1992 16.5916C42.1699 14.1893 42.1797 14.0233 42.375 13.4959C42.7559 12.4803 43.459 11.7479 44.4844 11.3182C44.9824 11.1131 45.1777 11.0838 45.9492 11.1131C46.6621 11.1326 46.9258 11.1912 47.3652 11.4061ZM47.8437 23.6815C49.9922 24.2869 53.625 25.4979 54.123 25.7615C54.8555 26.1522 55.6367 26.9334 56.0371 27.6854C56.2129 28.0174 56.6328 29.1209 56.9746 30.1365L57.5996 31.9822L57.3359 32.119C56.4473 32.5682 54.2598 33.4471 54.2012 33.3787C54.1621 33.3397 53.8691 32.6756 53.5566 31.9139C53.2539 31.1424 52.9316 30.4686 52.8633 30.41C52.6387 30.2244 52.043 30.283 51.8086 30.5076C51.6035 30.7127 51.6035 30.7518 51.5742 36.2791L51.5547 41.8455H45.5H39.4453L39.4258 36.2791C39.3965 30.7518 39.3965 30.7127 39.1914 30.5076C38.957 30.283 38.3613 30.2244 38.1367 30.41C38.0586 30.4783 37.7656 31.0936 37.4922 31.7869C37.209 32.4901 36.9453 33.0565 36.8965 33.0565C36.8281 33.0565 33.7031 31.533 33.6152 31.4549C33.5469 31.3963 34.6894 28.1932 34.9629 27.6854C35.3633 26.9334 36.1445 26.1424 36.8769 25.7615C37.5898 25.3807 42.9219 23.6815 44.0156 23.4861C44.8262 23.3299 47.0234 23.4471 47.8437 23.6815ZM36.3105 34.5799C36.3301 34.5994 36.2324 34.9022 36.0859 35.2537C35.7539 36.0936 35.7539 36.494 36.0859 36.7576C36.6523 37.1971 37.1504 36.9041 37.5508 35.8885C37.6973 35.5076 37.834 35.2049 37.8535 35.2049C37.8633 35.2049 37.8828 36.7283 37.8828 38.5936V41.992L35.7734 42.6268C33.2148 43.3983 33.2441 43.3885 33.7324 43.0565C34.6699 42.4217 35.1777 41.7674 35.6367 40.6346C35.9785 39.7752 35.998 39.4139 35.7441 39.1014C35.5195 38.8279 34.9531 38.7986 34.6797 39.0526C34.5723 39.1404 34.3574 39.5506 34.2109 39.9608C33.7422 41.201 33.4785 41.4061 29.5625 43.5838C27.6973 44.6287 25.959 45.5369 25.7051 45.6151C25.1582 45.7811 24.4551 45.7322 23.8887 45.4783L23.5078 45.3123L26.9844 42.3436C28.8984 40.7127 30.6074 39.1795 30.793 38.9256C31.3008 38.2322 31.4473 37.8611 32.2676 35.4002C32.6875 34.1404 33.0488 33.076 33.0684 33.0369C33.0976 32.9783 36.1543 34.4334 36.3105 34.5799ZM58.8301 35.7029C59.582 37.949 59.709 38.2322 60.207 38.9256C60.3926 39.1795 62.1016 40.7127 64.0156 42.3436L67.4922 45.3123L67.1113 45.4783C66.5449 45.7322 65.8418 45.7811 65.2949 45.6151C65.041 45.5369 63.3027 44.6287 61.4375 43.5838C58.7422 42.0897 57.9512 41.6014 57.5703 41.2108C57.1211 40.7518 57.0137 40.5369 55.9492 37.8416L54.7969 34.9608L55.9883 34.4529C56.6328 34.1697 57.3457 33.8475 57.5605 33.7498C57.7754 33.6424 57.9902 33.5643 58.0391 33.5838C58.0879 33.5936 58.4492 34.5506 58.8301 35.7029ZM54.4453 38.3299C55.1191 40.0193 55.8027 41.5818 55.9492 41.7967C56.3008 42.3045 56.7598 42.7244 57.3652 43.1151C57.6387 43.2908 57.7851 43.408 57.707 43.3787C57.6289 43.3592 56.5644 43.0369 55.3437 42.6658L53.1172 41.992V38.5838C53.1172 36.7088 53.1367 35.1951 53.166 35.2147C53.1855 35.244 53.7617 36.6404 54.4453 38.3299ZM58.3223 45.2244C61.7695 46.2693 64.7773 47.2459 65.0019 47.3729C65.7832 47.8221 66.2617 48.7986 66.1738 49.7654C66.1152 50.4686 65.793 51.0545 65.1875 51.5428L64.7578 51.9041H57.0918H49.4258L49.2695 51.4061C49.1719 51.1326 48.9961 50.7322 48.8594 50.5272L48.625 50.1463H49.1328C50.2168 50.1365 50.666 49.9022 50.6758 49.3358C50.6855 48.5643 50.4219 48.4959 47.8926 48.6326C46.7695 48.701 45.8223 48.7401 45.793 48.7303C45.7637 48.7205 43.0684 48.4276 39.8066 48.0858C34.4062 47.5291 33.8398 47.4803 33.6055 47.617C33.0684 47.91 33.1074 48.7401 33.6641 48.9647C33.8105 49.0135 36.5254 49.326 39.6894 49.658C45.6172 50.2733 46.0859 50.3318 46.6133 50.5955C47.1211 50.8592 47.7461 51.5428 47.7461 51.8553C47.7461 51.8846 43.166 51.9041 37.5605 51.9041C29.5039 51.9041 27.2773 51.8748 26.8867 51.7772C25.8027 51.494 25.1387 50.5565 25.1387 49.3162C25.1484 48.5545 25.4219 47.7928 25.832 47.4022C25.998 47.2459 27.7559 46.6697 32.4336 45.2537L38.8105 43.3299L45.4316 43.3201L52.0527 43.3104L58.3223 45.2244Z" fill="#151515"/>
<path d="M55.168 48.2322C54.2109 48.2908 53.3711 48.3885 53.2539 48.4568C52.8535 48.6912 52.8047 49.2186 53.1562 49.619L53.3808 49.8924L56.1836 49.7361C58.8105 49.5994 59.0058 49.5799 59.2012 49.3846C59.4648 49.1209 59.4746 48.574 59.2207 48.2908C59.0644 48.1151 58.9375 48.0955 57.9609 48.1053C57.3652 48.1151 56.1055 48.1736 55.168 48.2322Z" fill="#151515"/>
<path d="M28.8331 67.2848H30.5781L33.2379 71.9133H33.3473L36.0071 67.2848H37.7521L34.0582 73.4695V77.4666H32.527V73.4695L28.8331 67.2848ZM41.0421 77.6207C40.3262 77.6207 39.7014 77.4567 39.1678 77.1285C38.6342 76.8004 38.2199 76.3414 37.9249 75.7514C37.6299 75.1615 37.4824 74.4721 37.4824 73.6832C37.4824 72.8911 37.6299 72.1984 37.9249 71.6051C38.2199 71.0118 38.6342 70.5511 39.1678 70.223C39.7014 69.8949 40.3262 69.7308 41.0421 69.7308C41.758 69.7308 42.3828 69.8949 42.9164 70.223C43.45 70.5511 43.8643 71.0118 44.1593 71.6051C44.4542 72.1984 44.6017 72.8911 44.6017 73.6832C44.6017 74.4721 44.4542 75.1615 44.1593 75.7514C43.8643 76.3414 43.45 76.8004 42.9164 77.1285C42.3828 77.4567 41.758 77.6207 41.0421 77.6207ZM41.0471 76.3729C41.5111 76.3729 41.8955 76.2502 42.2005 76.005C42.5054 75.7597 42.7308 75.4332 42.8766 75.0256C43.0257 74.6179 43.1003 74.1688 43.1003 73.6783C43.1003 73.191 43.0257 72.7436 42.8766 72.3359C42.7308 71.9249 42.5054 71.5952 42.2005 71.3466C41.8955 71.098 41.5111 70.9737 41.0471 70.9737C40.5797 70.9737 40.1919 71.098 39.8837 71.3466C39.5788 71.5952 39.3517 71.9249 39.2026 72.3359C39.0568 72.7436 38.9838 73.191 38.9838 73.6783C38.9838 74.1688 39.0568 74.6179 39.2026 75.0256C39.3517 75.4332 39.5788 75.7597 39.8837 76.005C40.1919 76.2502 40.5797 76.3729 41.0471 76.3729ZM49.4627 80.4893C48.8562 80.4893 48.3342 80.4098 47.8967 80.2507C47.4625 80.0916 47.1078 79.8811 46.8327 79.6193C46.5576 79.3575 46.3522 79.0708 46.2163 78.7592L47.494 78.2322C47.5835 78.3781 47.7028 78.5322 47.8519 78.6946C48.0044 78.8603 48.2099 79.0012 48.4684 79.1172C48.7302 79.2332 49.0666 79.2912 49.4776 79.2912C50.0411 79.2912 50.5067 79.1536 50.8746 78.8785C51.2425 78.6068 51.4265 78.1726 51.4265 77.576V76.0746H51.332C51.2425 76.237 51.1133 76.4176 50.9442 76.6165C50.7785 76.8153 50.5498 76.9877 50.2582 77.1335C49.9665 77.2794 49.587 77.3523 49.1197 77.3523C48.5165 77.3523 47.9729 77.2114 47.489 76.9297C47.0084 76.6446 46.6272 76.2254 46.3455 75.6719C46.0671 75.1151 45.9279 74.4306 45.9279 73.6186C45.9279 72.8066 46.0655 72.1106 46.3406 71.5305C46.619 70.9505 47.0001 70.5064 47.484 70.1981C47.9679 69.8866 48.5165 69.7308 49.1296 69.7308C49.6036 69.7308 49.9864 69.8104 50.2781 69.9695C50.5697 70.1252 50.7968 70.3075 50.9592 70.5163C51.1249 70.7251 51.2525 70.9091 51.342 71.0682H51.4513V69.8302H52.908V77.6356C52.908 78.2919 52.7556 78.8305 52.4506 79.2514C52.1457 79.6723 51.7331 79.9839 51.2127 80.1861C50.6957 80.3883 50.1123 80.4893 49.4627 80.4893ZM49.4478 76.1193C49.8754 76.1193 50.2366 76.0199 50.5316 75.821C50.8299 75.6188 51.0553 75.3305 51.2077 74.956C51.3635 74.5781 51.4414 74.1257 51.4414 73.5987C51.4414 73.085 51.3652 72.6326 51.2127 72.2415C51.0603 71.8504 50.8365 71.5454 50.5415 71.3267C50.2466 71.1046 49.882 70.9936 49.4478 70.9936C49.0004 70.9936 48.6275 71.1096 48.3292 71.3416C48.0309 71.5703 47.8055 71.8819 47.6531 72.2763C47.5039 72.6707 47.4293 73.1115 47.4293 73.5987C47.4293 74.0992 47.5056 74.5383 47.658 74.9162C47.8105 75.294 48.0359 75.589 48.3342 75.8011C48.6358 76.0133 49.007 76.1193 49.4478 76.1193ZM57.1239 77.6356C56.64 77.6356 56.2025 77.5462 55.8114 77.3672C55.4203 77.1849 55.1104 76.9214 54.8817 76.5767C54.6564 76.232 54.5437 75.8094 54.5437 75.3089C54.5437 74.8781 54.6265 74.5234 54.7923 74.245C54.958 73.9666 55.1817 73.7462 55.4634 73.5838C55.7451 73.4214 56.06 73.2988 56.408 73.2159C56.756 73.133 57.1107 73.0701 57.4719 73.027C57.9293 72.974 58.3005 72.9309 58.5856 72.8977C58.8706 72.8613 59.0778 72.8033 59.207 72.7237C59.3363 72.6442 59.4009 72.5149 59.4009 72.3359V72.3011C59.4009 71.8669 59.2783 71.5305 59.033 71.2919C58.7911 71.0533 58.4298 70.9339 57.9492 70.9339C57.4487 70.9339 57.0543 71.045 56.766 71.267C56.4809 71.4858 56.2837 71.7294 56.1744 71.9979L54.7773 71.6797C54.9431 71.2157 55.185 70.8411 55.5032 70.5561C55.8247 70.2677 56.1942 70.0589 56.6119 69.9297C57.0295 69.7971 57.4686 69.7308 57.9293 69.7308C58.2343 69.7308 58.5574 69.7673 58.8988 69.8402C59.2435 69.9098 59.565 70.0391 59.8633 70.228C60.1649 70.4169 60.4118 70.687 60.604 71.0383C60.7963 71.3864 60.8924 71.8388 60.8924 72.3956V77.4666H59.4407V76.4226H59.381C59.2849 76.6148 59.1407 76.8037 58.9485 76.9893C58.7563 77.1749 58.5094 77.3291 58.2077 77.4517C57.9061 77.5743 57.5449 77.6356 57.1239 77.6356ZM57.4471 76.4425C57.8581 76.4425 58.2094 76.3613 58.5011 76.1989C58.796 76.0365 59.0198 75.8243 59.1722 75.5625C59.328 75.2973 59.4059 75.014 59.4059 74.7124V73.728C59.3529 73.781 59.2501 73.8307 59.0977 73.8771C58.9485 73.9202 58.7778 73.9583 58.5856 73.9915C58.3933 74.0213 58.2061 74.0495 58.0238 74.076C57.8415 74.0992 57.689 74.1191 57.5664 74.1356C57.2781 74.1721 57.0146 74.2334 56.7759 74.3196C56.5406 74.4058 56.3517 74.5301 56.2092 74.6925C56.07 74.8516 56.0004 75.0637 56.0004 75.3288C56.0004 75.6967 56.1362 75.9751 56.408 76.1641C56.6798 76.3497 57.0262 76.4425 57.4471 76.4425Z" fill="#555555"/>
</svg>
