<svg width="91" height="90" viewBox="0 0 91 90" fill="none" xmlns="http://www.w3.org/2000/svg">
<path d="M36.5352 9.87891C36.3682 10.0459 36.3594 10.1689 36.3594 12.7266C36.3594 15.3721 36.3594 15.4072 36.1748 15.46C35.8672 15.5566 35.2871 16.1367 35.1201 16.5146C34.9004 16.9893 34.9004 17.8945 35.1201 18.3604C35.3223 18.791 35.7705 19.2305 36.2012 19.4062C36.3857 19.4854 36.79 19.5469 37.124 19.5469H37.7217L38.1172 20.083C38.3281 20.373 38.6357 20.7334 38.8027 20.874C38.9697 21.0234 39.0928 21.1465 39.0752 21.1641C39.0576 21.1729 37.5898 21.4453 35.8232 21.7705L32.5977 22.3506L31.6396 22.834C30.541 23.3789 29.9873 23.8711 29.6094 24.6357C29.3984 25.084 29.3721 25.2158 29.3721 26.0947C29.3721 26.9561 29.3984 27.1143 29.6094 27.5625C29.8643 28.1162 30.4268 28.7666 30.8838 29.0479C31.042 29.1533 32.334 29.6807 33.749 30.2256L36.3154 31.21L36.3594 33.6885C36.4033 36.0176 36.4121 36.1846 36.5703 36.2988C36.667 36.3691 36.8164 36.4219 36.9043 36.4219C37.0537 36.4219 37.0625 36.6064 37.0625 40.0693V43.7168L37.4316 45.1846C37.6602 46.0898 37.8535 46.7051 37.959 46.8105C38.0996 46.9512 38.293 46.9688 40.0508 46.9688H41.9844V48.5068C41.9844 50.0186 41.9932 50.0713 42.3535 51.5127C42.582 52.418 42.7754 53.0332 42.8809 53.1387C43.0215 53.2793 43.2236 53.2969 45.1484 53.2969C47.0732 53.2969 47.2754 53.2793 47.416 53.1387C47.5215 53.0332 47.7148 52.418 47.9434 51.5127L48.3125 50.0449V43.2334C48.3125 36.4834 48.3125 36.4219 48.4883 36.4219C48.585 36.4219 48.7432 36.3428 48.8398 36.2461C49.0068 36.0791 49.0156 35.9561 49.0156 32.0273V27.9844H54.2451C59.3252 27.9844 59.4834 27.9756 59.958 27.7998C62.2432 26.9473 62.2432 23.3965 59.958 22.5439C59.4922 22.3682 59.2988 22.3594 56.1963 22.3594L52.9268 22.3682L49.6309 21.7705C47.8203 21.4453 46.3174 21.1729 46.2998 21.1641C46.2822 21.1465 46.4053 21.0234 46.5723 20.874C46.7393 20.7334 47.0469 20.373 47.2578 20.083L47.6533 19.5469H48.2686C49.2354 19.5381 49.9561 19.0986 50.2812 18.2988C50.4746 17.8506 50.457 16.9541 50.2549 16.5146C50.0879 16.1367 49.5078 15.5566 49.2002 15.46C49.0332 15.4072 49.0156 15.3369 49.0156 14.7129C49.0156 14.2207 48.9629 13.8691 48.8311 13.5264C48.5938 12.8848 47.9521 12.2432 47.3369 12.0059C46.915 11.8477 46.8711 11.8037 46.7129 11.3818C46.4756 10.7666 45.834 10.125 45.1924 9.8877C44.7178 9.71191 44.542 9.70312 40.71 9.70312C36.8252 9.70312 36.7021 9.71191 36.5352 9.87891ZM44.709 11.3379C45.1133 11.5752 45.377 11.9795 45.4561 12.4717C45.5264 12.9902 45.7285 13.1924 46.2471 13.2627C47.0469 13.3857 47.4863 13.8779 47.5742 14.792L47.6357 15.3369L47.1172 15.2754C45.9395 15.1436 44.9111 14.625 44.2959 13.8428C43.8564 13.2891 43.751 13.2188 43.4258 13.2188C42.9775 13.2188 42.8721 13.2979 42.5996 13.8252C42.4678 14.1064 42.1865 14.4756 41.9932 14.6514C41.3779 15.2051 41.1582 15.2578 39.374 15.3105L37.7656 15.3457V13.2275V11.1006L41.0879 11.127C44.2432 11.1533 44.4189 11.1621 44.709 11.3379ZM45.0342 16.2773C45.5176 16.4883 46.4053 16.7344 46.6602 16.7344C47.0117 16.7344 46.7305 18.1055 46.2119 18.9229C44.7266 21.2344 41.5361 21.5508 39.6816 19.5645C39.0049 18.835 38.5566 17.8506 38.5566 17.0771V16.752L40.0332 16.7168C41.4658 16.6904 41.5098 16.6816 42.0811 16.418C42.4062 16.2598 42.8545 15.9521 43.0918 15.7148L43.5225 15.2842L44.0498 15.6797C44.3398 15.8994 44.7793 16.1631 45.0342 16.2773ZM37.0625 17.1475C37.0625 17.332 37.0889 17.6309 37.1152 17.8066L37.1768 18.1406L36.8955 18.0439C36.4297 17.877 36.2891 17.332 36.623 16.998C36.9043 16.7168 37.0625 16.7695 37.0625 17.1475ZM48.752 16.998C49.0859 17.332 48.9453 17.877 48.4795 18.0439L48.1982 18.1406L48.2598 17.8066C48.2861 17.6309 48.3125 17.332 48.3125 17.1475C48.3125 16.7695 48.4707 16.7168 48.752 16.998ZM43.8301 22.3682C43.8301 22.4385 43.4609 22.7637 43.2412 22.8779C43.1357 22.9307 42.8896 22.9746 42.6875 22.9746C42.4854 22.9746 42.2393 22.9307 42.1338 22.8779C41.9141 22.7637 41.5449 22.4385 41.5449 22.3682C41.5449 22.3418 42.0635 22.3154 42.6875 22.3154C43.3203 22.3154 43.8301 22.3418 43.8301 22.3682ZM40.1387 22.9307C40.4287 23.5195 41.0176 24.0732 41.6152 24.293C42.292 24.5479 43.3291 24.5127 43.9355 24.2227C44.4541 23.9678 44.9902 23.4316 45.2451 22.9219C45.4033 22.5967 45.4648 22.5264 45.623 22.5703C45.8516 22.623 51.6963 23.6777 51.7754 23.6777C51.8018 23.6777 51.8281 24.3281 51.8281 25.1279V26.5781H49.8945C48.0752 26.5781 47.9521 26.5869 47.7852 26.7539C47.6182 26.9209 47.6094 27.0439 47.6094 30.9727V35.0156H45.4297H43.2588L43.0479 34.5762C42.7666 33.9785 42.0283 33.3193 41.3867 33.082C40.9824 32.9238 40.7363 32.8975 40.0947 32.9238C39.2246 32.9502 38.7061 33.1436 38.1523 33.6357L37.8535 33.8906V32.8623C37.8535 31.834 37.8535 31.834 38.0557 31.8867C38.7412 32.0889 39.4971 32.2031 40.1914 32.2031C40.8682 32.2031 41.0527 32.168 41.4395 31.9746C43.1094 31.1396 43.1445 28.6348 41.501 27.791C41.0879 27.5713 33.9248 25.1719 33.7051 25.1719C33.5645 25.1719 33.5469 25.084 33.5469 24.4336V23.7041L34.584 23.5107C37.3174 23.001 39.752 22.5527 39.8486 22.5439C39.9014 22.5352 40.0332 22.7109 40.1387 22.9307ZM59.4746 23.9941C60.415 24.5479 60.415 25.7959 59.4746 26.3496C59.1846 26.5254 59.0088 26.5342 56.2051 26.5605L53.2344 26.5869V25.1719V23.7568L56.2051 23.7832C59.0088 23.8096 59.1846 23.8184 59.4746 23.9941ZM32.1406 24.7324V25.1719H31.7891H31.4375V25.875V26.5781H32.334H33.2393L37.001 27.8262C39.7432 28.7402 40.833 29.1445 40.9824 29.2939C41.29 29.6016 41.2725 30.1113 40.9385 30.4541C40.7012 30.6826 40.6309 30.709 40.0684 30.709C39.6992 30.709 39.2246 30.6387 38.8818 30.5332C38.0117 30.2607 32.1494 28.002 31.7451 27.7822C31.5605 27.6768 31.2793 27.4219 31.1387 27.2109C30.9189 26.9033 30.8662 26.7275 30.8398 26.2441C30.8135 25.752 30.8398 25.5938 31.0156 25.2598C31.209 24.8994 31.8682 24.293 32.0615 24.293C32.1055 24.293 32.1406 24.4863 32.1406 24.7324ZM41 34.5674C41.3691 34.7607 41.5449 34.9365 41.7734 35.3672C41.9316 35.6484 41.9404 35.9561 41.9668 39.208L41.9932 42.75H40.2266H38.46L38.4863 39.208C38.5127 35.7891 38.5215 35.666 38.6973 35.3232C38.9082 34.9277 39.0928 34.752 39.4795 34.5498C39.8486 34.3564 40.5957 34.3652 41 34.5674ZM46.9062 42.75V49.0781H45.1484H43.3906V42.75V36.4219H45.1484H46.9062V42.75ZM41.7207 44.2178C41.7207 44.2617 41.6416 44.5605 41.5625 44.9033L41.4043 45.5186H40.2266H39.0488L38.8906 44.9033C38.8115 44.5605 38.7324 44.2617 38.7324 44.2178C38.7324 44.1826 39.4092 44.1562 40.2266 44.1562C41.0527 44.1562 41.7207 44.1826 41.7207 44.2178ZM46.6426 50.5459C46.6426 50.5898 46.5635 50.8887 46.4844 51.2314L46.3262 51.8467H45.1484H43.9707L43.8125 51.2314C43.7334 50.8887 43.6543 50.5898 43.6543 50.5459C43.6543 50.5107 44.3311 50.4844 45.1484 50.4844C45.9746 50.4844 46.6426 50.5107 46.6426 50.5459Z" fill="#151515"/>
<path d="M40.5781 18.4043C40.5781 19.0283 41.1143 19.7754 41.7646 20.083C41.9932 20.1885 42.3184 20.25 42.6875 20.25C43.0566 20.25 43.3818 20.1885 43.6104 20.083C44.2607 19.7754 44.7969 19.0283 44.7969 18.4043V18.1406H44.0674C43.3467 18.1406 43.3379 18.1406 43.2412 18.4043C43.1357 18.6855 42.8281 18.8086 42.459 18.7207C42.3184 18.6855 42.1953 18.5625 42.1338 18.4043C42.0371 18.1406 42.0283 18.1406 41.3076 18.1406H40.5781V18.4043Z" fill="#151515"/>
<path d="M55.5898 11.9004C55.3877 12.0234 55.3438 12.1904 54.6934 15.1523C54.377 16.5762 54.0957 17.833 54.0693 17.9385C54.0254 18.1318 53.9814 18.1406 53.2783 18.1406H52.5312V18.8438V19.5469H53.7266C54.377 19.5469 54.9922 19.5117 55.0801 19.459C55.2822 19.3535 55.3525 19.1162 55.6953 17.5693C55.8447 16.8926 55.9854 16.2686 56.0117 16.1807C56.0557 16.0488 56.2051 16.0312 57.4619 16.0312H58.8594V15.3281V14.625H57.6289C56.2578 14.625 56.3105 14.6514 56.4775 14.0098C56.5215 13.8428 56.583 13.5967 56.6094 13.4561L56.6621 13.2188H58.1123H59.5625V12.5156V11.8125H57.6553C56.5742 11.8125 55.6777 11.8564 55.5898 11.9004Z" fill="#151515"/>
<path d="M22.8551 78V76.9759L28.2095 69.1406H22.8104V67.8182H30.0888V68.8423L24.7344 76.6776H30.1335V78H22.8551ZM36.7781 74.8331V70.3636H38.2695V78H36.8079V76.6776H36.7283C36.5527 77.0852 36.271 77.425 35.8832 77.6967C35.4987 77.9652 35.0198 78.0994 34.4464 78.0994C33.9558 78.0994 33.5217 77.9917 33.1438 77.7763C32.7693 77.5575 32.4743 77.2344 32.2589 76.8068C32.0468 76.3793 31.9407 75.8506 31.9407 75.2209V70.3636H33.4272V75.0419C33.4272 75.5623 33.5714 75.9766 33.8597 76.2848C34.1481 76.593 34.5226 76.7472 34.9833 76.7472C35.2617 76.7472 35.5385 76.6776 35.8136 76.5384C36.092 76.3991 36.3223 76.1887 36.5046 75.907C36.6902 75.6252 36.7814 75.2673 36.7781 74.8331ZM40.2669 78V70.3636H41.6937V71.6065H41.7882C41.9473 71.1856 42.2074 70.8575 42.5687 70.6222C42.93 70.3835 43.3625 70.2642 43.8663 70.2642C44.3767 70.2642 44.8043 70.3835 45.149 70.6222C45.497 70.8608 45.7538 71.1889 45.9196 71.6065H45.9991C46.1814 71.1989 46.4714 70.8741 46.8691 70.6321C47.2669 70.3868 47.7408 70.2642 48.291 70.2642C48.9837 70.2642 49.5488 70.4813 49.9863 70.9155C50.4271 71.3497 50.6475 72.0043 50.6475 72.8793V78H49.161V73.0185C49.161 72.5014 49.0202 72.1269 48.7385 71.8949C48.4567 71.6629 48.1203 71.5469 47.7292 71.5469C47.2453 71.5469 46.8691 71.696 46.6007 71.9943C46.3322 72.2893 46.198 72.6688 46.198 73.1328V78H44.7164V72.924C44.7164 72.5097 44.5872 72.1766 44.3287 71.9247C44.0701 71.6728 43.7337 71.5469 43.3194 71.5469C43.0377 71.5469 42.7775 71.6214 42.5389 71.7706C42.3036 71.9164 42.113 72.1203 41.9672 72.3821C41.8246 72.6439 41.7534 72.9472 41.7534 73.2919V78H40.2669ZM52.7592 78V67.8182H54.2457V71.6016H54.3352C54.4214 71.4425 54.5457 71.2585 54.7081 71.0497C54.8705 70.8409 55.0959 70.6586 55.3842 70.5028C55.6726 70.3438 56.0537 70.2642 56.5277 70.2642C57.1442 70.2642 57.6944 70.42 58.1783 70.7315C58.6622 71.0431 59.0417 71.4922 59.3168 72.0788C59.5952 72.6655 59.7344 73.3714 59.7344 74.1967C59.7344 75.022 59.5968 75.7296 59.3217 76.3196C59.0466 76.9062 58.6688 77.3587 58.1882 77.6768C57.7076 77.9917 57.1591 78.1491 56.5426 78.1491C56.0786 78.1491 55.6991 78.0713 55.4041 77.9155C55.1125 77.7597 54.8838 77.5774 54.718 77.3686C54.5523 77.1598 54.4247 76.9742 54.3352 76.8118H54.2109V78H52.7592ZM54.2159 74.1818C54.2159 74.7187 54.2938 75.1894 54.4496 75.5938C54.6054 75.9981 54.8307 76.3146 55.1257 76.5433C55.4207 76.7687 55.782 76.8814 56.2095 76.8814C56.6536 76.8814 57.0249 76.7637 57.3232 76.5284C57.6214 76.2898 57.8468 75.9666 57.9993 75.5589C58.1551 75.1513 58.233 74.6922 58.233 74.1818C58.233 73.678 58.1567 73.2256 58.0043 72.8246C57.8551 72.4235 57.6297 72.107 57.3281 71.875C57.0298 71.643 56.657 71.527 56.2095 71.527C55.7786 71.527 55.4141 71.638 55.1158 71.8601C54.8208 72.0821 54.5971 72.392 54.4446 72.7898C54.2921 73.1875 54.2159 73.6515 54.2159 74.1818ZM63.6259 78.169C63.142 78.169 62.7045 78.0795 62.3134 77.9006C61.9223 77.7183 61.6124 77.4548 61.3837 77.1101C61.1583 76.7654 61.0456 76.3428 61.0456 75.8423C61.0456 75.4115 61.1285 75.0568 61.2942 74.7784C61.4599 74.5 61.6837 74.2796 61.9654 74.1172C62.2471 73.9548 62.562 73.8321 62.91 73.7493C63.258 73.6664 63.6126 73.6035 63.9739 73.5604C64.4313 73.5073 64.8025 73.4643 65.0875 73.4311C65.3726 73.3946 65.5797 73.3366 65.709 73.2571C65.8382 73.1776 65.9029 73.0483 65.9029 72.8693V72.8345C65.9029 72.4003 65.7802 72.0639 65.535 71.8253C65.293 71.5866 64.9318 71.4673 64.4512 71.4673C63.9507 71.4673 63.5563 71.5784 63.2679 71.8004C62.9829 72.0192 62.7857 72.2628 62.6763 72.5312L61.2793 72.2131C61.445 71.7491 61.687 71.3745 62.0051 71.0895C62.3266 70.8011 62.6962 70.5923 63.1138 70.4631C63.5314 70.3305 63.9706 70.2642 64.4313 70.2642C64.7362 70.2642 65.0594 70.3007 65.4007 70.3736C65.7454 70.4432 66.0669 70.5724 66.3652 70.7614C66.6668 70.9503 66.9138 71.2204 67.106 71.5717C67.2982 71.9197 67.3944 72.3722 67.3944 72.929V78H65.9426V76.956H65.883C65.7869 77.1482 65.6427 77.3371 65.4505 77.5227C65.2582 77.7083 65.0113 77.8625 64.7097 77.9851C64.4081 78.1077 64.0468 78.169 63.6259 78.169ZM63.949 76.9759C64.36 76.9759 64.7114 76.8946 65.003 76.7322C65.298 76.5698 65.5217 76.3577 65.6742 76.0959C65.83 75.8307 65.9078 75.5473 65.9078 75.2457V74.2614C65.8548 74.3144 65.7521 74.3641 65.5996 74.4105C65.4505 74.4536 65.2798 74.4917 65.0875 74.5249C64.8953 74.5547 64.708 74.5829 64.5257 74.6094C64.3435 74.6326 64.191 74.6525 64.0684 74.669C63.78 74.7055 63.5165 74.7668 63.2779 74.853C63.0426 74.9392 62.8536 75.0634 62.7111 75.2259C62.5719 75.3849 62.5023 75.5971 62.5023 75.8622C62.5023 76.2301 62.6382 76.5085 62.91 76.6974C63.1818 76.883 63.5281 76.9759 63.949 76.9759Z" fill="#555555"/>
</svg>
