<svg width="25" height="24" viewBox="0 0 25 24" fill="none" xmlns="http://www.w3.org/2000/svg">
<path fill-rule="evenodd" clip-rule="evenodd" d="M3.37868 2.87868C2.5 3.75736 2.5 5.17157 2.5 8V16C2.5 18.8284 2.5 20.2426 3.37868 21.1213C4.25736 22 5.67157 22 8.5 22H16.5C19.3284 22 20.7426 22 21.6213 21.1213C22.5 20.2426 22.5 18.8284 22.5 16V8C22.5 5.17157 22.5 3.75736 21.6213 2.87868C20.7426 2 19.3284 2 16.5 2H8.5C5.67157 2 4.25736 2 3.37868 2.87868ZM18.3321 9.5547C18.6384 9.09517 18.5142 8.4743 18.0547 8.16795C17.5952 7.8616 16.9743 7.98577 16.6679 8.4453L13.6238 13.0115L13.1651 12.094C12.4783 10.7205 10.5639 10.6013 9.7121 11.8791L6.66795 16.4453C6.3616 16.9048 6.48577 17.5257 6.9453 17.8321C7.40483 18.1384 8.0257 18.0142 8.33205 17.5547L11.3762 12.9885L11.8349 13.906C12.5217 15.2795 14.4361 15.3987 15.2879 14.1209L18.3321 9.5547Z" fill="#707070"/>
</svg>
