<svg width="25" height="24" viewBox="0 0 25 24" fill="none" xmlns="http://www.w3.org/2000/svg">
<path fill-rule="evenodd" clip-rule="evenodd" d="M3.85288 8.44909C3.5 9.19275 3.5 10.0388 3.5 11.7308V17.0152C3.5 19.3651 3.5 20.54 4.25315 21.27C4.96843 21.9633 6.09771 21.9982 8.28613 21.9999V15.7691C8.28613 14.4994 9.33913 13.5229 10.5718 13.5229H14.429C15.6617 13.5229 16.7147 14.4994 16.7147 15.7691V21.9999C18.9026 21.9981 20.0317 21.9632 20.7468 21.27C21.5 20.54 21.5 19.3651 21.5 17.0152V11.7308C21.5 10.0388 21.5 9.19275 21.1471 8.44909C20.7942 7.70544 20.1315 7.15485 18.8061 6.05369L17.5204 4.98552C15.1247 2.99517 13.9268 2 12.5 2C11.0732 2 9.8753 2.99517 7.47961 4.98552L6.1939 6.05369C4.86847 7.15485 4.20576 7.70544 3.85288 8.44909ZM14.7147 22V15.7691C14.7147 15.6623 14.6164 15.5229 14.429 15.5229H10.5718C10.3844 15.5229 10.2861 15.6623 10.2861 15.7691V22H14.7147Z" fill="#6C2BD9"/>
</svg>
