<svg width="24" height="24" viewBox="0 0 24 24" fill="none" xmlns="http://www.w3.org/2000/svg">
<path fill-rule="evenodd" clip-rule="evenodd" d="M15.3907 5.14181C18.0287 6.61892 19.8467 9.38586 19.9908 12.5886L13.8371 10.9398L15.3907 5.14181ZM12.555 4.13383L10.8099 10.6463L10.7983 10.6897C10.7483 10.8754 10.6778 11.1373 10.6468 11.3775C10.6078 11.6802 10.5986 12.159 10.8803 12.6469C11.162 13.1348 11.5813 13.3662 11.8629 13.4838C12.0864 13.5771 12.3485 13.647 12.5343 13.6965L12.5777 13.7081L19.6202 15.5952C18.5062 19.3006 15.0684 22 11 22C6.02946 22 2.00002 17.9706 2.00002 13C2.00002 8.02944 6.02946 4 11 4C11.5303 4 12.0499 4.04586 12.555 4.13383Z" fill="#6B7280"/>
<path d="M14.0706 4.27259C14.3215 3.33602 14.447 2.86773 14.8792 2.67286C15.3113 2.47799 15.6928 2.66782 16.4556 3.04748C17.0297 3.33321 17.5764 3.67419 18.0876 4.06647C19.1295 4.8659 20.0036 5.86272 20.6603 7C21.3169 8.13728 21.743 9.39275 21.9144 10.6947C21.9986 11.3336 22.0205 11.9775 21.9809 12.6176C21.9283 13.4681 21.902 13.8933 21.5171 14.1701C21.1323 14.447 20.664 14.3215 19.7274 14.0706L13.9319 12.5176C13.0212 12.2736 12.5658 12.1516 12.3587 11.7929C12.1516 11.4342 12.2736 10.9788 12.5176 10.0681L14.0706 4.27259Z" fill="#6B7280"/>
</svg>
